<svg width="595" height="152" viewBox="0 0 595 152" fill="white" xmlns="http://www.w3.org/2000/svg">
<g clip-path="url(#clip0_1_4)">
<path d="M37.632 124.216C30.2933 124.216 24.1493 122.701 19.2 119.672C14.2933 116.6 10.5813 112.333 8.064 106.872C5.58933 101.368 4.352 94.9893 4.352 87.736C4.352 80.312 5.632 73.912 8.192 68.536C10.7947 63.16 14.5493 59.0427 19.456 56.184C24.4053 53.2827 30.3573 51.832 37.312 51.832C44.1387 51.832 49.792 53.0053 54.272 55.352C58.752 57.6987 62.0587 60.92 64.192 65.016C66.3253 69.0693 67.264 73.6773 67.008 78.84H47.744C47.6587 76.8773 47.3813 75.192 46.912 73.784C46.4427 72.3333 45.76 71.16 44.864 70.264C44.0107 69.3253 42.944 68.6427 41.664 68.216C40.4267 67.7467 38.976 67.512 37.312 67.512C32.832 67.512 29.504 69.1547 27.328 72.44C25.152 75.6827 24.064 80.6747 24.064 87.416C24.064 94.7547 25.28 100.024 27.712 103.224C30.144 106.381 33.5787 108.067 38.016 108.28C39.7653 108.365 41.4293 108.088 43.008 107.448C44.5867 106.808 45.8667 105.741 46.848 104.248C47.8293 102.712 48.2987 100.707 48.256 98.232H67.264C67.392 103.395 66.304 107.939 64 111.864C61.696 115.747 58.304 118.776 53.824 120.952C49.3867 123.128 43.9893 124.216 37.632 124.216ZM90.831 123.768C86.863 123.768 83.2577 123.021 80.015 121.528C76.815 120.035 74.2763 117.837 72.399 114.936C70.5217 112.035 69.583 108.472 69.583 104.248C69.583 100.024 70.4363 96.5467 72.143 93.816C73.8923 91.0853 76.2603 88.952 79.247 87.416C82.2337 85.8373 85.6043 84.664 89.359 83.896C91.8763 83.384 94.4577 82.9573 97.103 82.616C99.791 82.2747 102.308 81.9973 104.655 81.784C107.044 81.5707 109.071 81.4 110.735 81.272V79.352C110.735 74.9147 109.988 71.8 108.495 70.008C107.044 68.216 104.484 67.32 100.815 67.32C98.4683 67.32 96.4843 67.64 94.863 68.28C93.2843 68.92 92.0897 70.072 91.279 71.736C90.511 73.4 90.1483 75.768 90.191 78.84H71.375C70.863 72.696 71.823 67.64 74.255 63.672C76.687 59.6613 80.2497 56.696 84.943 54.776C89.6363 52.8133 95.1403 51.832 101.455 51.832C105.124 51.832 108.687 52.2373 112.143 53.048C115.599 53.816 118.692 55.16 121.423 57.08C124.154 58.9573 126.308 61.5387 127.887 64.824C129.508 68.1093 130.319 72.2693 130.319 77.304V123H110.607L110.735 106.68C109.967 111.373 108.047 115.405 104.975 118.776C101.946 122.104 97.231 123.768 90.831 123.768ZM97.423 110.584C99.5137 110.584 101.498 110.2 103.375 109.432C105.295 108.621 106.916 107.533 108.239 106.168C109.562 104.76 110.394 103.203 110.735 101.496V90.488C109.028 90.744 107.3 91.0213 105.551 91.32C103.802 91.6187 102.266 91.9387 100.943 92.28C96.6763 93.2187 93.7537 94.52 92.175 96.184C90.5963 97.8053 89.807 99.9387 89.807 102.584C89.807 104.248 90.0843 105.677 90.639 106.872C91.2363 108.067 92.111 108.984 93.263 109.624C94.415 110.264 95.8017 110.584 97.423 110.584ZM139.523 123V53.112H157.315L158.979 80.504L157.827 76.344C158.211 72.6747 158.915 69.3467 159.939 66.36C160.963 63.3307 162.286 60.728 163.907 58.552C165.528 56.376 167.47 54.6907 169.731 53.496C172.035 52.3013 174.659 51.704 177.603 51.704C178.456 51.704 179.31 51.7467 180.163 51.832C181.059 51.9173 181.848 52.0667 182.531 52.28V72.952C181.08 72.568 179.672 72.312 178.307 72.184C176.984 72.0133 175.662 71.928 174.339 71.928C171.992 71.928 169.859 72.1413 167.939 72.568C166.062 72.9947 164.419 73.656 163.011 74.552C161.603 75.4053 160.43 76.5147 159.491 77.88V123H139.523ZM210.755 123.832C204.995 123.832 200.494 122.381 197.251 119.48C194.051 116.536 192.451 111.992 192.451 105.848L192.259 74.616C192.259 72.9947 192.707 71.672 193.603 70.648C194.542 69.624 195.843 68.9627 197.507 68.664L192.259 55.928V53.816L195.907 33.144H212.099V99.704C212.099 102.691 212.462 104.76 213.187 105.912C213.955 107.064 215.406 107.64 217.539 107.64C219.672 107.64 221.443 107.597 222.851 107.512C224.302 107.427 225.667 107.277 226.947 107.064V122.744C225.411 123.299 223.107 123.619 220.035 123.704C217.006 123.789 213.912 123.832 210.755 123.832ZM184.835 68.664V53.112H226.499V68.664H184.835ZM260.962 123.96C253.879 123.96 247.842 122.552 242.85 119.736C237.858 116.92 234.039 112.845 231.394 107.512C228.749 102.136 227.426 95.6507 227.426 88.056C227.426 80.2053 228.834 73.592 231.65 68.216C234.466 62.7973 238.434 58.7013 243.554 55.928C248.674 53.1547 254.669 51.768 261.538 51.768C268.194 51.768 273.783 53.0267 278.306 55.544C282.871 58.0613 286.327 61.7733 288.674 66.68C291.021 71.5867 292.194 77.624 292.194 84.792C292.194 85.688 292.151 86.7333 292.066 87.928C292.023 89.08 291.959 90.4027 291.874 91.896H246.946C247.415 97.6987 248.823 101.944 251.17 104.632C253.517 107.277 256.802 108.6 261.026 108.6C264.525 108.6 267.17 107.832 268.962 106.296C270.797 104.76 271.885 102.733 272.226 100.216H291.298C290.914 105.037 289.442 109.24 286.882 112.824C284.365 116.365 280.909 119.117 276.514 121.08C272.119 123 266.935 123.96 260.962 123.96ZM255.074 80.696H273.058C272.887 76.216 271.799 72.8667 269.794 70.648C267.831 68.4293 264.802 67.32 260.706 67.32C255.885 67.32 252.365 69.048 250.146 72.504C247.927 75.9173 246.797 80.7813 246.754 87.096C247.095 84.664 247.927 83 249.25 82.104C250.573 81.1653 252.514 80.696 255.074 80.696ZM324.274 124.088C318.258 124.088 313.074 123.213 308.722 121.464C304.413 119.715 301.063 117.069 298.674 113.528C296.285 109.944 294.962 105.4 294.706 99.896H314.098C314.482 103.309 315.57 105.827 317.362 107.448C319.197 109.069 321.65 109.88 324.722 109.88C326.258 109.88 327.73 109.709 329.138 109.368C330.546 108.984 331.698 108.344 332.594 107.448C333.49 106.509 333.938 105.229 333.938 103.608C333.938 102.285 333.597 101.219 332.914 100.408C332.274 99.5547 331.314 98.8507 330.034 98.296C328.797 97.6987 327.282 97.1653 325.49 96.696C323.698 96.184 321.671 95.5867 319.41 94.904C315.399 93.7093 311.645 92.2587 308.146 90.552C304.69 88.8453 301.895 86.5627 299.762 83.704C297.629 80.8453 296.562 77.0907 296.562 72.44C296.562 65.4853 299.101 60.3227 304.178 56.952C309.298 53.5813 315.997 51.896 324.274 51.896C329.138 51.896 333.511 52.5573 337.394 53.88C341.277 55.2027 344.477 57.5493 346.994 60.92C349.554 64.2907 351.197 69.048 351.922 75.192L332.658 75.064C332.274 72.3333 331.613 70.3067 330.674 68.984C329.735 67.6187 328.669 66.7227 327.474 66.296C326.279 65.8267 325.042 65.592 323.762 65.592C322.311 65.592 320.989 65.8267 319.794 66.296C318.642 66.7653 317.725 67.448 317.042 68.344C316.359 69.24 316.018 70.3707 316.018 71.736C316.018 73.3573 316.53 74.744 317.554 75.896C318.578 77.048 320.135 78.072 322.226 78.968C324.317 79.8213 326.983 80.696 330.226 81.592C332.359 82.1467 334.749 82.8293 337.394 83.64C340.082 84.4507 342.642 85.5813 345.074 87.032C347.549 88.4827 349.575 90.4453 351.154 92.92C352.775 95.3947 353.586 98.5947 353.586 102.52C353.586 109.347 350.962 114.659 345.714 118.456C340.466 122.211 333.319 124.088 324.274 124.088ZM359.481 123V53.112H379.321V123H359.481ZM369.465 45.176C366.137 45.176 363.3 44.024 360.953 41.72C358.606 39.3733 357.433 36.3867 357.433 32.76C357.433 29.1333 358.606 26.1893 360.953 23.928C363.3 21.624 366.137 20.472 369.465 20.472C372.75 20.472 375.566 21.624 377.913 23.928C380.26 26.1893 381.433 29.1333 381.433 32.76C381.433 36.3867 380.26 39.3733 377.913 41.72C375.566 44.024 372.75 45.176 369.465 45.176ZM407.056 123.768C403.088 123.768 399.483 123.021 396.24 121.528C393.04 120.035 390.501 117.837 388.624 114.936C386.747 112.035 385.808 108.472 385.808 104.248C385.808 100.024 386.661 96.5467 388.368 93.816C390.117 91.0853 392.485 88.952 395.472 87.416C398.459 85.8373 401.829 84.664 405.584 83.896C408.101 83.384 410.683 82.9573 413.328 82.616C416.016 82.2747 418.533 81.9973 420.88 81.784C423.269 81.5707 425.296 81.4 426.96 81.272V79.352C426.96 74.9147 426.213 71.8 424.72 70.008C423.269 68.216 420.709 67.32 417.04 67.32C414.693 67.32 412.709 67.64 411.088 68.28C409.509 68.92 408.315 70.072 407.504 71.736C406.736 73.4 406.373 75.768 406.416 78.84H387.6C387.088 72.696 388.048 67.64 390.48 63.672C392.912 59.6613 396.475 56.696 401.168 54.776C405.861 52.8133 411.365 51.832 417.68 51.832C421.349 51.832 424.912 52.2373 428.368 53.048C431.824 53.816 434.917 55.16 437.648 57.08C440.379 58.9573 442.533 61.5387 444.112 64.824C445.733 68.1093 446.544 72.2693 446.544 77.304V123H426.832L426.96 106.68C426.192 111.373 424.272 115.405 421.2 118.776C418.171 122.104 413.456 123.768 407.056 123.768ZM413.648 110.584C415.739 110.584 417.723 110.2 419.6 109.432C421.52 108.621 423.141 107.533 424.464 106.168C425.787 104.76 426.619 103.203 426.96 101.496V90.488C425.253 90.744 423.525 91.0213 421.776 91.32C420.027 91.6187 418.491 91.9387 417.168 92.28C412.901 93.2187 409.979 94.52 408.4 96.184C406.821 97.8053 406.032 99.9387 406.032 102.584C406.032 104.248 406.309 105.677 406.864 106.872C407.461 108.067 408.336 108.984 409.488 109.624C410.64 110.264 412.027 110.584 413.648 110.584ZM450.107 129.4L478.395 21.496H495.675L467.387 129.4H450.107ZM517.506 123.768C513.538 123.768 509.933 123.021 506.69 121.528C503.49 120.035 500.951 117.837 499.074 114.936C497.197 112.035 496.258 108.472 496.258 104.248C496.258 100.024 497.111 96.5467 498.818 93.816C500.567 91.0853 502.935 88.952 505.922 87.416C508.909 85.8373 512.279 84.664 516.034 83.896C518.551 83.384 521.133 82.9573 523.778 82.616C526.466 82.2747 528.983 81.9973 531.33 81.784C533.719 81.5707 535.746 81.4 537.41 81.272V79.352C537.41 74.9147 536.663 71.8 535.17 70.008C533.719 68.216 531.159 67.32 527.49 67.32C525.143 67.32 523.159 67.64 521.538 68.28C519.959 68.92 518.765 70.072 517.954 71.736C517.186 73.4 516.823 75.768 516.866 78.84H498.05C497.538 72.696 498.498 67.64 500.93 63.672C503.362 59.6613 506.925 56.696 511.618 54.776C516.311 52.8133 521.815 51.832 528.13 51.832C531.799 51.832 535.362 52.2373 538.818 53.048C542.274 53.816 545.367 55.16 548.098 57.08C550.829 58.9573 552.983 61.5387 554.562 64.824C556.183 68.1093 556.994 72.2693 556.994 77.304V123H537.282L537.41 106.68C536.642 111.373 534.722 115.405 531.65 118.776C528.621 122.104 523.906 123.768 517.506 123.768ZM524.098 110.584C526.189 110.584 528.173 110.2 530.05 109.432C531.97 108.621 533.591 107.533 534.914 106.168C536.237 104.76 537.069 103.203 537.41 101.496V90.488C535.703 90.744 533.975 91.0213 532.226 91.32C530.477 91.6187 528.941 91.9387 527.618 92.28C523.351 93.2187 520.429 94.52 518.85 96.184C517.271 97.8053 516.482 99.9387 516.482 102.584C516.482 104.248 516.759 105.677 517.314 106.872C517.911 108.067 518.786 108.984 519.938 109.624C521.09 110.264 522.477 110.584 524.098 110.584ZM566.256 123V53.112H586.096V123H566.256ZM576.24 45.176C572.912 45.176 570.075 44.024 567.728 41.72C565.381 39.3733 564.208 36.3867 564.208 32.76C564.208 29.1333 565.381 26.1893 567.728 23.928C570.075 21.624 572.912 20.472 576.24 20.472C579.525 20.472 582.341 21.624 584.688 23.928C587.035 26.1893 588.208 29.1333 588.208 32.76C588.208 36.3867 587.035 39.3733 584.688 41.72C582.341 44.024 579.525 45.176 576.24 45.176Z" />
</g>
<defs>
</defs>
</svg>
